<svg height="512" viewBox="0 0 64 64" width="512" xmlns="http://www.w3.org/2000/svg"><g id="Coffee_Cup-hot_coffee-coffee_bean-Restaurant-Coffee_break-coffee_time" data-name="Coffee Cup-hot coffee-coffee bean-Restaurant-Coffee break-coffee time"><path d="m14 38h36a0 0 0 0 1 0 0v10a8 8 0 0 1 -8 8h-20a8 8 0 0 1 -8-8v-10a0 0 0 0 1 0 0z" fill="#87d7e5"/><path d="m61 56v3a2.006 2.006 0 0 1 -2 2h-54a2.006 2.006 0 0 1 -2-2v-3z" fill="#365e7d"/><path d="m57 18h-45v20h45a4 4 0 0 0 4-4v-12a4 4 0 0 0 -4-4zm0 15a1 1 0 0 1 -1 1h-4v-12h4a1 1 0 0 1 1 1z" fill="#b4e6ee"/><path d="m17.46 42.12c4.87 2.6 7.35 7.47 5.54 10.88a4.876 4.876 0 0 1 -.69.99c-2.79-1.56-1.73-3.63-4.63-5.18-2.95-1.57-4.07.55-7.02-1.01-2.9-1.55-1.84-3.62-4.63-5.18 2.27-2.53 7.07-2.82 11.43-.5z" fill="#7e543b"/><path d="m6.03 42.62c2.79 1.56 1.73 3.63 4.63 5.18 2.95 1.56 4.07-.56 7.02 1.01 2.9 1.55 1.84 3.62 4.63 5.18-2.26 2.53-7.07 2.82-11.43.5-4.87-2.6-7.35-7.47-5.54-10.88a5.308 5.308 0 0 1 .69-.99z" fill="#cc8355"/><path d="m35.85 50.19c-.8 3.3-4.91 5.81-9.85 5.81-5.52 0-10-3.13-10-7a4.733 4.733 0 0 1 .15-1.19c3.18.06 3.23 2.39 6.51 2.39 3.34 0 3.34-2.4 6.67-2.4 3.29 0 3.34 2.33 6.52 2.39z" fill="#7e543b"/><path d="m36 49a4.733 4.733 0 0 1 -.15 1.19c-3.18-.06-3.23-2.39-6.52-2.39-3.33 0-3.33 2.4-6.67 2.4-3.28 0-3.33-2.33-6.51-2.39.8-3.3 4.91-5.81 9.85-5.81 5.52 0 10 3.13 10 7z" fill="#cc8355"/><path d="m52 35h4a2 2 0 0 0 2-2v-10a2 2 0 0 0 -2-2h-4a1 1 0 0 0 -1 1v12a1 1 0 0 0 1 1zm4-2h-3v-10h3z"/><path d="m51 48v-9h6a5 5 0 0 0 5-5v-12a5 5 0 0 0 -5-5h-45a1 1 0 0 0 -1 1v20a1 1 0 0 0 1 1h1v.66c-3.72-.46-7.1.77-8.54 3.48-1.98 3.73.4 8.92 5.31 11.86h-6.77a1 1 0 0 0 -1 1v3a3.009 3.009 0 0 0 3 3h54a3.009 3.009 0 0 0 3-3v-3a1 1 0 0 0 -1-1h-13.36a8.96 8.96 0 0 0 3.36-7zm-38-29h44a3.009 3.009 0 0 1 3 3v12a3.009 3.009 0 0 1 -3 3h-44zm3.99 24c.33.18.64.37.95.57a7.67 7.67 0 0 0 -2.65 3.63 11.405 11.405 0 0 0 -1.25.11 4.228 4.228 0 0 1 -4.86-2.57 6.536 6.536 0 0 0 -1.54-2.19c2.19-1.46 5.91-1.37 9.35.45zm16.26 5.19a6.222 6.222 0 0 0 -7.84 0 4.235 4.235 0 0 1 -5.49 0 6.665 6.665 0 0 0 -2.39-1.21c1.25-2.31 4.57-3.98 8.47-3.98 4.96 0 9 2.69 9 6 0 .03-.01.06-.01.09a4.662 4.662 0 0 1 -1.74-.9zm1.22 2.83c-1.25 2.31-4.57 3.98-8.47 3.98-4.96 0-9-2.69-9-6 0-.03.01-.06.01-.09a4.662 4.662 0 0 1 1.74.9 6.208 6.208 0 0 0 7.83 0 4.249 4.249 0 0 1 5.5 0 6.665 6.665 0 0 0 2.39 1.21zm-28.25-6.94a.351.351 0 0 0 .05-.08 4.676 4.676 0 0 1 1.12 1.62 6.034 6.034 0 0 0 2.8 3.06 5.6 5.6 0 0 0 2.75.73 9.7 9.7 0 0 0 1.37-.12c.25-.03.48-.06.7-.08a7.328 7.328 0 0 0 3.59 5.69c-.23.05-.46.07-.7.1h-2.08a12.5 12.5 0 0 1 -4.47-1.39c-4.38-2.34-6.68-6.61-5.13-9.53zm53.78 12.92v2a1 1 0 0 1 -1 1h-54a1 1 0 0 1 -1-1v-2zm-18-2h-8.75a7.311 7.311 0 0 0 3.75-6c0-4.41-4.93-8-11-8a13.811 13.811 0 0 0 -6.23 1.42 15.169 15.169 0 0 0 -1.84-1.18 15.1 15.1 0 0 0 -2.93-1.18v-1.06h34v9a7.008 7.008 0 0 1 -7 7z"/><path d="m35.64 9.268c1.997-1.668 4.26-3.55 4.26-7.268h-2c0 2.782-1.641 4.149-3.54 5.732-2 1.664-4.26 3.55-4.26 7.268h2c0-2.782 1.641-4.149 3.54-5.732z"/><path d="m24.64 9.268c1.997-1.668 4.26-3.55 4.26-7.268h-2c0 2.782-1.641 4.149-3.54 5.732-2 1.664-4.26 3.55-4.26 7.268h2c0-2.782 1.641-4.149 3.54-5.732z"/><path d="m46.64 9.268c1.997-1.668 4.26-3.55 4.26-7.268h-2c0 2.782-1.641 4.149-3.54 5.732-2 1.664-4.26 3.55-4.26 7.268h2c0-2.782 1.641-4.149 3.54-5.732z"/></g></svg>