<svg height="512" viewBox="0 0 64 64" width="512" xmlns="http://www.w3.org/2000/svg"><g id="flat"><path d="m8 22h12v16h-12z" fill="#195c85"/><path d="m44 8-5 14h22l-5-14-6-1z" fill="#e6f1fd"/><path d="m44 18h12v-10l-6-1-6 1z" fill="#ffc483"/><path d="m51 11h2v2h-2z" fill="#394d5c"/><path d="m47 11h2v2h-2z" fill="#394d5c"/><path d="m8 8h12v10h-12z" fill="#ffd782" transform="matrix(-1 0 0 -1 28 26)"/><path d="m15 12h2v2h-2z" fill="#394d5c"/><path d="m11 12h2v2h-2z" fill="#394d5c"/><path d="m13 33h2v5h-2z" fill="#105375"/><path d="m8 38h12v19h-12z" fill="#2d75bb"/><path d="m8 57h6a0 0 0 0 1 0 0v4a0 0 0 0 1 0 0h-9a0 0 0 0 1 0 0v-1a3 3 0 0 1 3-3z" fill="#394d5c"/><path d="m13 43h2v14h-2z" fill="#105375"/><path d="m14 57h6a3 3 0 0 1 3 3v1a0 0 0 0 1 0 0h-9a0 0 0 0 1 0 0v-4a0 0 0 0 1 0 0z" fill="#143441"/><path d="m8 22a0 0 0 0 1 0 0v16a0 0 0 0 1 0 0h-4a0 0 0 0 1 0 0v-12a4 4 0 0 1 4-4z" fill="#2d75bb"/><path d="m4 38h4a0 0 0 0 1 0 0v2a2 2 0 0 1 -2 2 2 2 0 0 1 -2-2v-2a0 0 0 0 1 0 0z" fill="#ffd782"/><path d="m59 22h-16l-12 12a2.121 2.121 0 0 0 3 3l9-9v1l3 4h8l3-4v7a2 2 0 0 0 4 0v-12a2 2 0 0 0 -2-2z" fill="#ffc483"/><path d="m43 26h3c1.322 0 2.266-.1 3 1l1 2 1-2c.734-1.1 1.678-1 3-1h3v3l-3 4h-8l-3-4z" fill="#e6f1fd"/><path d="m59 61h-18l5-28h8z" fill="#d0e5f7"/><path d="m56 8-6-1-6 1v-2a2.905 2.905 0 0 1 3-3h6a2.905 2.905 0 0 1 3 3z" fill="#394d5c"/><path d="m47.99 50.16-1.81 10.84h-2.03l1.86-11.16z" fill="#96c3f0"/><path d="m55.85 61h-2.03l-1.81-10.84 1.98-.32z" fill="#96c3f0"/><path d="m20 8h-12v-2c0-2.33 1.67-3 4-3h9z" fill="#394d5c"/><path d="m27 35-7-7v-6l10 10z" fill="#2d75bb"/><path d="m27 35 3-3 2 2a2.122 2.122 0 0 1 0 3 2.122 2.122 0 0 1 -3 0z" fill="#ffd782"/><path d="m8 22h12a0 0 0 0 1 0 0v6a6 6 0 0 1 -6 6 6 6 0 0 1 -6-6v-6a0 0 0 0 1 0 0z" fill="#e6f1fd"/><path d="m14 22-6 6v-6z" fill="#195c85"/><path d="m14 22h6v6z" fill="#195c85"/><path d="m14 22-2 10 2 2 2-2z" fill="#b11e48"/></g></svg>