<svg enable-background="new 0 0 512 512" viewBox="0 0 512 512" xmlns="http://www.w3.org/2000/svg"><path d="m502 462c0 22.079-17.919 40-40 40h-412c-22.09 0-40-17.91-40-40z" fill="#fec652"/><path d="m56 328.46c9.5 8.05 24.02 7.23 32.5-2.46 9.26-10.59 25.74-10.59 35 0s25.74 10.59 35 0 25.74-10.59 35 0 25.74 10.59 35 0 25.74-10.59 35 0 25.74 10.59 35 0 25.74-10.59 35 0 25.74 10.59 35 0c3.91-4.46 9.09-7.05 14.48-7.75 7.39-.96 15.16 1.63 20.52 7.75 9.26 10.59 25.74 10.59 35 0 4.63-5.29 11.07-7.94 17.5-7.94v143.94h-400c0-46.358 0-85.953 0-133.54z" fill="#ffe5cb"/><path d="m456 296v22.06c-6.43 0-12.87 2.65-17.5 7.94-9.26 10.59-25.74 10.59-35 0-5.36-6.12-13.13-8.71-20.52-7.75-5.39.7-10.57 3.29-14.48 7.75-9.26 10.59-25.74 10.59-35 0s-25.74-10.59-35 0-25.74 10.59-35 0-25.74-10.59-35 0-25.74 10.59-35 0-25.74-10.59-35 0-25.74 10.59-35 0-25.74-10.59-35 0c-8.48 9.69-23 10.51-32.5 2.46v-32.46c0-11.05 8.95-20 20-20h360c11.05 0 20 8.95 20 20z" fill="#ff4a70"/><path d="m396 276h-280v-77.94c6.43 0 12.87 2.65 17.5 7.94 9.26 10.59 25.74 10.59 35 0s25.74-10.59 35 0 25.74 10.59 35 0 25.74-10.59 35 0 25.74 10.59 35 0 25.74-10.59 35 0 25.74 10.59 35 0c4.63-5.29 11.07-7.94 17.5-7.94z" fill="#ffe5cb"/><path d="m396 176v22.06c-6.43 0-12.87 2.65-17.5 7.94-9.26 10.59-25.74 10.59-35 0s-25.74-10.59-35 0-25.74 10.59-35 0-25.74-10.59-35 0-25.74 10.59-35 0-25.74-10.59-35 0-25.74 10.59-35 0c-4.63-5.29-11.07-7.94-17.5-7.94v-22.06c0-11.05 8.95-20 20-20h240c11.05 0 20 8.95 20 20z" fill="#ff4a70"/><path d="m356 90v66h-40v-66c0-11.05 8.95-20 20-20s20 8.95 20 20z" fill="#fff"/><path d="m350.45 31.68c3.62 5.42 5.55 11.8 5.55 18.32 0 11.05-8.95 20-20 20s-20-8.95-20-20c0-6.52 1.93-12.9 5.55-18.32l14.45-21.68z" fill="#fec652"/><path d="m276 90v66h-40v-66c0-11.05 8.95-20 20-20s20 8.95 20 20z" fill="#fff"/><path d="m270.45 31.68c3.62 5.42 5.55 11.8 5.55 18.32 0 11.05-8.95 20-20 20s-20-8.95-20-20c0-6.52 1.93-12.9 5.55-18.32l14.45-21.68z" fill="#fec652"/><path d="m196 90v66h-40v-66c0-11.05 8.95-20 20-20s20 8.95 20 20z" fill="#fff"/><path d="m190.45 31.68c3.62 5.42 5.55 11.8 5.55 18.32 0 11.05-8.95 20-20 20s-20-8.95-20-20c0-6.52 1.93-12.9 5.55-18.32l14.45-21.68z" fill="#fec652"/><path d="m256 386c-5.52 0-10 4.48-10 10s4.48 10 10 10 10-4.48 10-10-4.48-10-10-10z"/><path d="m50 512h412c13.35 0 25.904-5.203 35.352-14.649 9.446-9.447 14.648-22.002 14.648-35.351 0-5.523-4.478-10-10-10h-36v-156c0-16.542-13.458-30-30-30h-30v-90c0-16.542-13.458-30-30-30h-10v-56c0-7.678-2.902-14.688-7.663-20 4.761-5.312 7.663-12.322 7.663-20 0-8.533-2.502-16.789-7.229-23.866l-14.45-21.68c-1.854-2.783-4.977-4.454-8.321-4.454s-6.467 1.671-8.321 4.454l-14.444 21.672c-4.733 7.085-7.235 15.341-7.235 23.874 0 7.678 2.902 14.688 7.663 20-4.761 5.312-7.663 12.322-7.663 20v56h-20v-56c0-7.678-2.902-14.688-7.663-20 4.761-5.312 7.663-12.322 7.663-20 0-8.533-2.502-16.789-7.229-23.866l-14.45-21.68c-1.854-2.783-4.977-4.454-8.321-4.454s-6.467 1.671-8.321 4.454l-14.445 21.672c-4.733 7.086-7.234 15.342-7.234 23.874 0 7.678 2.902 14.688 7.663 20-4.761 5.312-7.663 12.322-7.663 20v56h-20v-56c0-7.678-2.902-14.688-7.663-20 4.761-5.312 7.663-12.322 7.663-20 0-8.532-2.501-16.788-7.229-23.866l-14.45-21.68c-1.855-2.783-4.977-4.454-8.321-4.454s-6.466 1.671-8.321 4.454l-14.445 21.672c-4.733 7.086-7.234 15.342-7.234 23.874 0 7.678 2.902 14.688 7.663 20-4.761 5.312-7.663 12.322-7.663 20v56h-10c-16.542 0-30 13.458-30 30v90h-30c-16.542 0-30 13.458-30 30v156h-36c-5.523 0-10 4.477-10 10 0 27.57 22.43 50 50 50zm276-422c0-5.514 4.486-10 10-10s10 4.486 10 10v56h-20zm3.871-52.774 6.129-9.195 6.135 9.204c2.528 3.786 3.865 8.2 3.865 12.765 0 5.514-4.486 10-10 10s-10-4.486-10-10c0-4.565 1.337-8.979 3.871-12.774zm-83.871 52.774c0-5.514 4.486-10 10-10s10 4.486 10 10v56h-20zm3.871-52.774 6.129-9.195 6.135 9.204c2.528 3.786 3.865 8.2 3.865 12.765 0 5.514-4.486 10-10 10s-10-4.486-10-10c0-4.565 1.337-8.979 3.871-12.774zm-83.871 52.774c0-5.514 4.486-10 10-10s10 4.486 10 10v56h-20zm3.871-52.774 6.129-9.195 6.134 9.203c2.529 3.787 3.866 8.201 3.866 12.766 0 5.514-4.486 10-10 10s-10-4.486-10-10c0-4.565 1.337-8.979 3.871-12.774zm-33.871 128.774h240c5.514 0 10 4.486 10 10v13.609c-5.752 1.815-10.97 5.172-15.028 9.809-2.551 2.918-6.093 4.525-9.972 4.525s-7.421-1.607-9.972-4.525c-6.313-7.219-15.436-11.36-25.028-11.36s-18.716 4.141-25.028 11.36c-2.551 2.918-6.093 4.525-9.972 4.525s-7.421-1.607-9.972-4.525c-6.313-7.219-15.436-11.36-25.028-11.36s-18.715 4.141-25.028 11.36c-2.552 2.918-6.093 4.525-9.972 4.525s-7.42-1.607-9.972-4.525c-6.313-7.219-15.435-11.36-25.028-11.36s-18.715 4.141-25.028 11.36c-2.552 2.918-6.093 4.525-9.972 4.525s-7.42-1.607-9.975-4.528c-4.056-4.635-9.273-7.991-15.025-9.805v-13.61c0-5.514 4.486-10 10-10zm-10 46.613c6.312 7.2 15.421 11.33 25 11.33 9.593 0 18.715-4.141 25.028-11.36 2.552-2.918 6.093-4.525 9.972-4.525s7.42 1.607 9.972 4.525c6.313 7.219 15.435 11.36 25.028 11.36s18.715-4.141 25.028-11.36c2.551-2.918 6.093-4.525 9.972-4.525s7.421 1.607 9.972 4.525c6.313 7.219 15.436 11.36 25.028 11.36s18.716-4.141 25.028-11.36c2.551-2.918 6.093-4.525 9.972-4.525s7.421 1.607 9.972 4.525c6.313 7.219 15.436 11.36 25.028 11.36 9.58 0 18.691-4.13 25-11.329v53.386h-260zm-50 73.387h360c5.514 0 10 4.486 10 10v13.609c-5.752 1.815-10.97 5.172-15.028 9.809-2.551 2.918-6.093 4.525-9.972 4.525s-7.421-1.607-9.978-4.531c-7.33-8.37-18.291-12.513-29.33-11.078-8.007 1.04-15.362 4.973-20.721 11.084-2.551 2.918-6.093 4.525-9.972 4.525s-7.421-1.607-9.972-4.525c-6.313-7.219-15.436-11.36-25.028-11.36s-18.716 4.141-25.028 11.36c-2.551 2.918-6.093 4.525-9.972 4.525s-7.421-1.607-9.972-4.525c-6.313-7.219-15.436-11.36-25.028-11.36s-18.715 4.141-25.028 11.36c-2.552 2.918-6.093 4.525-9.972 4.525s-7.42-1.607-9.972-4.525c-6.313-7.219-15.435-11.36-25.028-11.36s-18.715 4.141-25.028 11.36c-2.552 2.918-6.093 4.525-9.972 4.525s-7.42-1.607-9.972-4.525c-6.313-7.219-15.435-11.36-25.028-11.36s-18.715 4.141-25.025 11.357c-3.799 4.342-9.89 5.602-14.975 3.544v-26.959c.001-5.514 4.487-10 10.001-10zm-10 120h150c5.523 0 10-4.477 10-10s-4.477-10-10-10h-150v-42.477c10.859 1.613 22.326-2.138 30.028-10.941 2.552-2.918 6.093-4.525 9.972-4.525s7.42 1.607 9.972 4.525c6.313 7.219 15.435 11.36 25.028 11.36s18.715-4.141 25.028-11.36c2.552-2.918 6.093-4.525 9.972-4.525s7.42 1.607 9.972 4.525c6.313 7.219 15.435 11.36 25.028 11.36s18.715-4.141 25.028-11.36c2.552-2.918 6.093-4.525 9.972-4.525s7.421 1.607 9.972 4.525c6.313 7.219 15.436 11.36 25.028 11.36s18.716-4.141 25.028-11.36c2.551-2.918 6.093-4.525 9.972-4.525s7.421 1.607 9.972 4.525c6.313 7.219 15.436 11.36 25.028 11.36s18.716-4.141 25.02-11.35c2.743-3.128 6-4.133 8.249-4.426 4.405-.57 8.782 1.081 11.703 4.416 6.313 7.219 15.436 11.36 25.028 11.36 9.58 0 18.691-4.13 25-11.329v53.387h-150c-5.522 0-10 4.477-10 10s4.478 10 10 10h150v46h-380zm424.298 66c-1.471 4.168-3.869 7.989-7.089 11.208-5.669 5.67-13.201 8.792-21.209 8.792h-412c-13.038 0-24.159-8.359-28.287-20z"/></svg>