<svg enable-background="new 0 0 512.002 512.002" viewBox="0 0 512.002 512.002" xmlns="http://www.w3.org/2000/svg"><path d="m504.501 97.5c-4.142 0-7.5 3.358-7.5 7.5v11.5c0 41.907-34.093 76-76 76h-30v15h30c50.178 0 91-40.822 91-91v-11.5c0-4.142-3.358-7.5-7.5-7.5z" fill="#b9d171"/><path d="m7.501 97.5c4.142 0 7.5 3.358 7.5 7.5v11.5c0 41.907 34.093 76 76 76h30v15h-30c-50.178 0-91-40.822-91-91v-11.5c0-4.142 3.358-7.5 7.5-7.5z" fill="#ffd9d4"/><path d="m293.5 192.5h45v15h-45z" fill="#ffcb63"/><path d="m173.5 192.5h45v15h-45z" fill="#ffb4a9"/><path d="m313.629 497.385 24.872-8.29v-181.595h15v187c0 3.229-2.066 6.095-5.128 7.115l-30 10c-.787.262-1.586.387-2.373.387-3.14 0-6.066-1.987-7.114-5.13-1.31-3.93.814-8.178 4.743-9.487z" fill="#e18f4e"/><path d="m318.373 497.385-24.872-8.29v-181.595h-15v187c0 3.229 2.066 6.095 5.128 7.115l30 10c.787.262 1.586.387 2.373.387 3.14 0 6.066-1.987 7.114-5.13 1.31-3.93-.814-8.178-4.743-9.487z" fill="#084f6d"/><path d="m193.629 497.385 24.872-8.29v-181.595h15v187c0 3.229-2.066 6.095-5.128 7.115l-30 10c-.787.262-1.586.387-2.373.387-3.14 0-6.066-1.987-7.114-5.13-1.31-3.93.814-8.178 4.743-9.487z" fill="#116f97"/><path d="m193.629 497.385 24.872-8.29v-181.595h15v187c0 3.229-2.066 6.095-5.128 7.115l-30 10c-.787.262-1.586.387-2.373.387-3.14 0-6.066-1.987-7.114-5.13-1.31-3.93.814-8.178 4.743-9.487z" fill="#116f97"/><path d="m173.501 317.5v171.595l24.872 8.29c3.93 1.31 6.053 5.558 4.744 9.487-1.048 3.143-3.974 5.13-7.114 5.13-.786 0-1.586-.125-2.373-.387l-30-10c-3.063-1.021-5.128-3.887-5.128-7.115v-177c-.001-4.143 14.999-4.143 14.999 0z" fill="#002f42"/><path d="m97.413 327.811v72.36l-74.783 24.927c-3.063 1.021-5.128 3.887-5.128 7.115v31.623c0 4.143 3.358 7.5 7.5 7.5s7.5-3.357 7.5-7.5v-26.218l74.783-24.927c3.063-1.021 5.128-3.887 5.128-7.115v-77.766z" fill="#084f6d"/><path d="m489.373 425.098-74.783-24.927v-94.14h-15v99.545c0 3.229 2.066 6.095 5.128 7.115l74.783 24.927v26.218c0 4.143 3.358 7.5 7.5 7.5s7.5-3.357 7.5-7.5v-31.623c0-3.229-2.066-6.095-5.128-7.115z" fill="#c27749"/><path d="m256.001 262.5v75c24.853 0 45-20.147 45-45z" fill="#084f6d"/><path d="m271.001 292.5-15-30-45 30c0 24.853 20.147 45 45 45 8.284 0 15-20.147 15-45z" fill="#116f97"/><path d="m281.001 172.5h-30l20 120h30v-100c0-11.046-8.954-20-20-20z" fill="#ffcb63"/><path d="m251.001 172.5h-20c-11.046 0-20 8.954-20 20v100h60v-100c0-11.046-8.954-20-20-20z" fill="#ffe2a8"/><path d="m298.43 82.5-42.429-20v80c24.853 0 45-20.147 45-45 0-5.261-.912-10.307-2.571-15z" fill="#c27749"/><path d="m256.001 52.5 14.143 30h28.286c-6.178-17.476-22.837-30-42.429-30z" fill="#40211d"/><path d="m270.144 82.5-42.429-19.99c-10.192 8.25-16.714 20.856-16.714 34.99 0 24.853 20.147 45 45 45 8.284 0 15-20.147 15-45 0-5.261-.304-10.307-.857-15z" fill="#e18f4e"/><path d="m256.001 82.5h14.143c-2.06-17.476-7.613-30-14.143-30-10.719 0-20.557 3.754-28.286 10.01 4.117 11.651 15.216 19.99 28.286 19.99z" fill="#60312c"/><path d="m161.001 172.5h-30l-20 120 70-30v-70c0-11.046-8.954-20-20-20z" fill="#ffe2a8"/><path d="m131.001 172.5h-20c-11.046 0-20 8.954-20 20v100h60v-100c0-11.046-8.954-20-20-20z" fill="#fff0d3"/><path d="m181.001 262.5h-30l-20 37.5 20 47.81h30z" fill="#ff6337"/><path d="m151.001 262.5h-60c-9.329 10.575-15 24.454-15 39.665v45.645h75z" fill="#ff8646"/><circle cx="86" cy="117.5" fill="#ff6337" r="25"/><path d="m150.093 82.047-14.092 60.453c24.853 0 45-20.147 45-45z" fill="#ffb4a9"/><path d="m151.001 97.5c0-5.429-.321-10.634-.908-15.453l-41.095-20.546c-10.927 8.211-17.997 21.279-17.997 35.999 0 24.853 20.147 45 45 45 8.284 0 15-20.147 15-45z" fill="#ffd9d4"/><path d="m136.001 52.5 14.899 39.832c9.413 3.341 19.543 5.168 30.101 5.168 0-24.853-20.147-45-45-45z" fill="#ff4128"/><path d="m136.001 52.5c-10.132 0-19.481 3.35-27.003 9.002 10.532 14.02 25.066 24.856 41.901 30.831-.854-22.418-7.197-39.833-14.898-39.833z" fill="#ff6337"/><path d="m376.001 262.5v75c24.853 0 45-20.147 45-45z" fill="#c27749"/><path d="m391.001 292.5-15-30-45 30c0 24.853 20.147 45 45 45 8.284 0 15-20.147 15-45z" fill="#e18f4e"/><path d="m401.001 172.5h-30l20 120h30v-100c0-11.046-8.954-20-20-20z" fill="#b9d171"/><path d="m371.001 172.5h-20c-11.046 0-20 8.954-20 20v100h60v-100c0-11.046-8.954-20-20-20z" fill="#d5e3aa"/><path d="m368.501 152.5v110c0 4.143 3.358 7.5 7.5 7.5s7.5-3.357 7.5-7.5v-110z" fill="#40211d"/><circle cx="52.5" cy="37.5" fill="#b9d171" r="15"/><circle cx="22.501" cy="291.5" fill="#ffcb63" r="15"/><circle cx="489.5" cy="291.5" fill="#b9d171" r="15"/><circle cx="314.87" cy="22.5" fill="#ffb4a9" r="15"/><circle cx="109.82" cy="7.5" fill="#ff8646" r="7.5"/><circle cx="196" cy="36.5" fill="#49c9ff" r="7.5"/><circle cx="402.19" cy="22.5" fill="#ffcb63" r="7.5"/><circle cx="22.501" cy="217.5" fill="#49c9ff" r="7.5"/><circle cx="444.5" cy="52.5" fill="#ff8646" r="7.5"/><circle cx="489.5" cy="217.5" fill="#ff8646" r="7.5"/><circle cx="459.5" cy="247.5" fill="#49c9ff" r="7.5"/><path d="m376.001 52.5v101l45-46v-10c0-24.853-20.147-45-45-45z" fill="#85453d"/><path d="m376.001 52.5c-24.853 0-45 20.147-45 45v10l60 46v-56c0-24.853-6.716-45-15-45z" fill="#a45e43"/><path d="m394.71 107.5c-1.053-1.573-2.303-3.002-3.709-4.261l-15 69.261c24.853 0 45-20.147 45-45v-20z" fill="#ffe2a8"/><path d="m391.001 127.5v-24.261c-3.981-3.566-9.235-5.739-15-5.739-7.801 0-14.672 3.971-18.709 10h-26.291v20c0 24.853 20.147 45 45 45 8.284 0 15-20.147 15-45z" fill="#fff0d3"/></svg>