<svg enable-background="new 0 0 509.175 509.175" height="512" viewBox="0 0 509.175 509.175" width="512" xmlns="http://www.w3.org/2000/svg"><circle cx="385.725" cy="61.608" fill="#6ba7ff" r="30"/><circle cx="396.725" cy="208.608" fill="#be065a" r="30"/><path d="m316.725 138.608h-30c0-43.713-17.022-84.81-47.932-115.72l-1.673-1.672 21.21-21.216 1.674 1.674c18.075 18.075 32.199 39.213 41.98 62.827s14.741 48.548 14.741 74.107z" fill="#a6d3fc"/><path d="m493.432 128.471c-10.842-5.011-33.221-2.309-42.358-.216l-6.699-29.242c3.889-.892 38.656-8.398 61.642 2.226z" fill="#ffbda9"/><path d="m505.725 350.608h-30v-6c0-18.748-15.252-34-34-34v-30c35.29 0 64 28.71 64 64z" fill="#2681ff"/><path d="m73.118 324.656-69.96 184.519 53.892-41.736 27.818-39.973 17.565-68.622z" fill="#fabe2c"/><path d="m84.868 427.466-81.71 81.709 87.266-33.087 37.943-39.445z" fill="#ff9100"/><path d="m132.824 167.181-59.706 157.475 11.75 102.81 47.551-17.566 25.803-55.789 42.842-108.017z" fill="#fed843"/><path d="m168.768 446.385 17.138-57.556-27.684-34.718-73.354 73.355 5.556 48.622z" fill="#fabe2c"/><path d="m229.106 263.463-91.726-91.726 20.842 182.374 41.461-9.855 31.45-63.056z" fill="#fabe2c"/><path d="m246.637 416.861 9.775-70.984-25.279-64.677-72.911 72.911 10.546 92.274z" fill="#ff9100"/><path d="m345.152 379.509-116.046-116.046 17.531 153.398z" fill="#fabe2c"/><path d="m144.719 93.963-51.639 51.64 136.825 136.825 40.77-.465 10.869-51.174z" fill="#f40b75"/><path d="m287.623 228.271h73.029v193.5h-73.029z" fill="#be065a" transform="matrix(.707 -.707 .707 .707 -134.887 324.396)"/></svg>