<svg id="Capa_1" enable-background="new 0 0 512 512" height="512" viewBox="0 0 512 512" width="512" xmlns="http://www.w3.org/2000/svg"><g><g><path clip-rule="evenodd" d="m183.224 31.599c-9.033 0-16.398 7.336-16.398 16.398s7.365 16.398 16.398 16.398c9.062 0 16.398-7.336 16.398-16.398s-7.336-16.398-16.398-16.398z" fill="#ccf49f" fill-rule="evenodd"/></g><g><path clip-rule="evenodd" d="m138.03 155.592-32.766 79.545 93.265 72.525 127.182 35.616-79.715-108.141z" fill="#ccf49f" fill-rule="evenodd"/></g><g><path clip-rule="evenodd" d="m325.711 343.278-220.447-108.141-20.167 48.993 92.661 78.48 119.214 25.461 52.07-21.462z" fill="#fe8d94" fill-rule="evenodd"/></g><g><path clip-rule="evenodd" d="m85.097 284.13-34.089 82.853 47.869 53.165 87.713 13.348 110.382-45.425z" fill="#ccf49f" fill-rule="evenodd"/></g><g><path clip-rule="evenodd" d="m51.008 366.983-20.167 49.022 33.4 34.896 57.075 9.465 65.274-26.87z" fill="#fe8d94" fill-rule="evenodd"/></g><g><path clip-rule="evenodd" d="m30.841 416.005-28.048 68.095c-4.517 13.579-3.797 20.109 3.941 20.483h1.582c3.164-.144 7.307-1.093 12.485-2.819l100.515-41.398z" fill="#ccf49f" fill-rule="evenodd"/></g><g><path clip-rule="evenodd" d="m20.801 501.764 100.515-41.398-36.535-17.923-78.076 32.163-3.912 9.494c-4.517 13.579-3.797 20.109 3.941 20.483h1.582c3.165-.144 7.307-1.093 12.485-2.819z" fill="#b3e59f" fill-rule="evenodd"/></g><g><path clip-rule="evenodd" d="m121.316 460.366 65.274-26.87-36.535-17.923-52.098 21.462-13.176 5.408z" fill="#ff6d75" fill-rule="evenodd"/></g><g><path clip-rule="evenodd" d="m186.59 433.496 110.382-45.425-36.535-17.923-97.206 40.017-13.176 5.408z" fill="#b3e59f" fill-rule="evenodd"/></g><g><path clip-rule="evenodd" d="m296.972 388.071 52.07-21.462-20.857-20.857-2.474-2.474-52.098 21.433-13.176 5.437z" fill="#ff6d75" fill-rule="evenodd"/></g><g><path clip-rule="evenodd" d="m138.03 155.592 187.681 187.686 23.331 23.331 2.503 2.503c6.904 6.904 18.239 6.904 25.172 0 6.904-6.933 6.904-18.239 0-25.173l-216.018-216.023c-6.933-6.904-18.239-6.904-25.172 0-6.933 6.933-6.933 18.239 0 25.172z" fill="#fde588" fill-rule="evenodd"/></g><g><path clip-rule="evenodd" d="m376.716 369.112c6.904-6.933 6.904-18.239 0-25.173l-23.302-23.302c6.875 6.933 6.847 18.21-.058 25.115-6.933 6.933-18.239 6.933-25.172 0l20.857 20.857 2.503 2.503c6.905 6.905 18.239 6.905 25.172 0z" fill="#fdd76f" fill-rule="evenodd"/></g><g><path d="m360.517 270.193c-1.798 0-3.604-.633-5.054-1.923-3.142-2.792-3.425-7.604-.632-10.745 13.871-15.606 32.959-35.412 57.642-50.173 28.239-16.889 59.32-24.418 92.386-22.36 4.196.26 7.386 3.872 7.126 8.068-.261 4.196-3.886 7.399-8.068 7.125-64.928-4.019-106.049 31.838-137.708 67.454-1.503 1.692-3.593 2.554-5.692 2.554z" fill="#fe8d94"/></g><g><path d="m224.365 148.762c-2.086 0-4.164-.852-5.667-2.527-2.808-3.128-2.548-7.941.58-10.749 27.526-24.706 55.528-56.437 54.521-104.446-.088-4.203 3.248-7.681 7.451-7.77 4.236-.077 7.681 3.248 7.77 7.451 1.143 54.478-31.236 90.66-59.572 116.094-1.455 1.304-3.273 1.947-5.083 1.947z" fill="#ccf49f"/></g><g><path d="m316.13 240.562c-1.839 0-3.683-.662-5.145-2.004-3.097-2.842-3.303-7.657-.461-10.754 14.655-15.968 34.602-36.39 58.965-52.702 3.494-2.339 8.221-1.403 10.56 2.09s1.403 8.221-2.09 10.56c-23.022 15.414-42.138 35.003-56.22 50.346-1.5 1.634-3.552 2.464-5.609 2.464z" fill="#ccf49f"/></g><g><path d="m276.118 171.23c-2.099 0-4.188-.863-5.692-2.555-2.793-3.142-2.51-7.953.632-10.746 36.831-32.739 73.92-75.263 69.753-142.429-.26-4.196 2.93-7.808 7.126-8.068 4.188-.261 7.808 2.93 8.068 7.126 2.115 34.091-5.647 66.146-23.069 95.276-15.234 25.471-35.666 45.163-51.765 59.473-1.448 1.289-3.254 1.923-5.053 1.923z" fill="#fe8d94"/></g><g><path clip-rule="evenodd" d="m419.12 89.568 10.644-21.03c1.438-2.819 2.503-2.819 3.941.029l10.644 21.001 21 10.644c2.848 1.438 2.848 2.503 0 3.941l-21 10.644-10.644 21.001c-1.438 2.848-2.503 2.819-3.941 0l-10.644-21.001-21-10.644c-2.819-1.438-2.848-2.503 0-3.941z" fill="#fde588" fill-rule="evenodd"/></g><g><path clip-rule="evenodd" d="m455.655 306.742c-9.033 0-16.369 7.336-16.369 16.398s7.336 16.398 16.369 16.398c9.062 0 16.398-7.336 16.398-16.398s-7.336-16.398-16.398-16.398z" fill="#ccf49f" fill-rule="evenodd"/></g></g></svg>