<svg id="Capa_1" enable-background="new 0 0 510 510" height="512" viewBox="0 0 510 510" width="512" xmlns="http://www.w3.org/2000/svg" xmlns:xlink="http://www.w3.org/1999/xlink"><linearGradient id="lg1"><stop offset="0" stop-color="#b0e7c9"/><stop offset=".593" stop-color="#46cc8d"/><stop offset="1" stop-color="#0ab69f"/></linearGradient><linearGradient id="SVGID_1_" gradientTransform="matrix(.707 .707 -.707 .707 242.93 -110.618)" gradientUnits="userSpaceOnUse" x1="150.171" x2="256.798" xlink:href="#lg1" y1="101.77" y2="101.77"/><linearGradient id="lg2"><stop offset="0" stop-color="#46cc8d"/><stop offset=".5484" stop-color="#0ab69f"/><stop offset="1" stop-color="#01998d"/></linearGradient><linearGradient id="SVGID_2_" gradientTransform="matrix(.707 .707 -.707 .707 260.027 -103.537)" gradientUnits="userSpaceOnUse" x1="180.205" x2="244.69" xlink:href="#lg2" y1="112.383" y2="112.383"/><linearGradient id="SVGID_3_" gradientTransform="matrix(.707 .707 -.707 .707 242.93 -110.618)" gradientUnits="userSpaceOnUse" x1="270.712" x2="398.952" xlink:href="#lg1" y1="101.77" y2="101.77"/><linearGradient id="SVGID_4_" gradientTransform="matrix(.707 .707 -.707 .707 260.027 -103.537)" gradientUnits="userSpaceOnUse" x1="269.126" x2="380.826" xlink:href="#lg2" y1="108.852" y2="108.852"/><linearGradient id="SVGID_5_" gradientTransform="matrix(.707 .707 -.707 .707 242.93 -110.618)" gradientUnits="userSpaceOnUse" x1="214.909" x2="337.904" xlink:href="#lg1" y1="58.054" y2="58.054"/><linearGradient id="SVGID_6_" gradientTransform="matrix(.707 .707 -.707 .707 260.027 -103.537)" gradientUnits="userSpaceOnUse" x1="227.728" x2="314.343" xlink:href="#lg2" y1="65.136" y2="65.136"/><linearGradient id="lg3"><stop offset="0" stop-color="#feb237"/><stop offset="1" stop-color="#fd6930"/></linearGradient><linearGradient id="SVGID_7_" gradientTransform="matrix(.707 .707 -.707 .707 242.93 -110.618)" gradientUnits="userSpaceOnUse" x1="151.394" x2="424.188" xlink:href="#lg3" y1="368.78" y2="368.78"/><linearGradient id="SVGID_8_" gradientTransform="matrix(.707 .707 -.707 .707 260.027 -103.537)" gradientUnits="userSpaceOnUse" x1="22.969" x2="357.71" xlink:href="#lg3" y1="426.03" y2="426.03"/><linearGradient id="SVGID_9_" gradientTransform="matrix(.707 .707 -.707 .707 260.027 -103.537)" gradientUnits="userSpaceOnUse" x1="22.969" x2="357.71" xlink:href="#lg3" y1="215.768" y2="215.768"/><linearGradient id="SVGID_10_" gradientTransform="matrix(.707 .707 -.707 .707 260.027 -103.537)" gradientUnits="userSpaceOnUse" x1="22.969" x2="357.71" xlink:href="#lg3" y1="283.991" y2="283.991"/><linearGradient id="SVGID_11_" gradientTransform="matrix(.707 .707 -.707 .707 260.027 -103.537)" gradientUnits="userSpaceOnUse" x1="22.969" x2="357.71" xlink:href="#lg3" y1="375.863" y2="375.863"/><g><path d="m362.175 125.768c-23.865 58.307-63.51 97.265-88.551 87.016s-25.994-65.825-2.13-124.131 63.51-97.265 88.551-87.016c25.041 10.249 25.994 65.824 2.13 124.131z" fill="url(#SVGID_1_)"/><path d="m299.35 209.491c-13.711 3.613-24.494 2.715-30.717-3.507-19.134-19.134 12.099-81.381 69.756-139.038 13.251-13.251 26.743-25.102 39.895-35.27 3.783 23.865-1.534 58.471-16.115 94.095-16.688 40.77-41.09 72.088-62.819 83.72z" fill="url(#SVGID_2_)"/><path d="m384.222 147.816c-58.307 23.865-97.265 63.51-87.016 88.551s65.825 25.994 124.132 2.13 97.265-63.51 87.016-88.551c-10.249-25.042-65.825-25.995-124.132-2.13z" fill="url(#SVGID_3_)"/><path d="m508.354 149.945c-2.697-6.589-8.535-11.508-16.733-14.748 6.28 25.115-31.892 62.662-87.969 85.614-42.965 17.585-84.443 21.692-107.399 12.618.25.999.561 1.98.953 2.937 10.249 25.041 65.825 25.994 124.132 2.13 58.306-23.864 97.265-63.51 87.016-88.551z" fill="url(#SVGID_4_)"/><path d="m425.361 153.913c-57.66 57.66-119.912 88.892-139.044 69.76s12.1-81.384 69.76-139.044 119.912-88.892 139.044-69.76c19.132 19.133-12.1 81.385-69.76 139.044z" fill="url(#SVGID_5_)"/><path d="m495.121 14.869c-5.04-5.041-13.077-6.581-23.23-5.068-4.231 28.387-32.359 73.345-74.828 115.814s-87.427 70.597-115.814 74.828c-1.513 10.154.028 18.19 5.068 23.23 19.132 19.132 81.385-12.1 139.044-69.76s88.892-119.911 69.76-139.044z" fill="url(#SVGID_6_)"/><path d="m371.329 264.222c-1.976-78.362-47.199-123.585-125.561-125.561-16.605-.419-41.074 12.967-62.054 33.948-88.61 88.609-153.212 190.516-173.777 274.125l-8.626 35.068c-5.229 21.257 5.615 32.117 26.863 26.905l34.839-8.546c83.638-20.516 185.628-85.145 274.305-173.821l.064-.064c20.98-20.98 34.366-45.449 33.947-62.054z" fill="url(#SVGID_7_)"/><g><path d="m149.185 405.804c4.884 4.884 12.802 4.884 17.685 0 4.884-4.884 4.884-12.802 0-17.685l-44.989-44.99c-4.884-4.884-12.802-4.884-17.685 0-4.884 4.884-4.884 12.802 0 17.685z" fill="url(#SVGID_8_)"/><path d="m297.863 257.126c4.884 4.884 12.802 4.884 17.685 0 4.884-4.884 4.884-12.802 0-17.685l-44.99-44.99c-4.884-4.884-12.802-4.884-17.685 0-4.884 4.884-4.884 12.802 0 17.685z" fill="url(#SVGID_9_)"/><path d="m211.936 267.682 30.381 30.381c4.884 4.884 12.802 4.884 17.685 0 4.884-4.884 4.884-12.802 0-17.685l-30.381-30.381c-4.884-4.884-12.802-4.884-17.685 0s-4.883 12.802 0 17.685z" fill="url(#SVGID_10_)"/><path d="m371.329 264.222c-1.206-47.846-18.537-83.335-49.688-104.172 13.29 19.868 20.62 45.357 21.389 75.873.419 16.605-12.967 41.074-33.948 62.054l-.064.064c-10.599 10.599-21.387 20.853-32.312 30.729-20.22 18.28-51.204 17.543-70.478-1.731l-59.382-59.382c-4.884-4.884-12.802-4.884-17.685 0-4.884 4.884-4.884 12.802 0 17.685l59.54 59.54c16.599 16.599 13.783 44.203-5.761 57.206-9.942 6.615-19.872 12.86-29.753 18.713-20.02 11.859-45.558 8.51-62.011-7.943l-24.544-24.544c-4.884-4.884-12.802-4.884-17.685 0-4.884 4.884-4.884 12.802 0 17.686l3.485 3.485c20.369 20.369 10.817 55.317-17.146 62.236-.19.047-.38.094-.571.141l-32.947 8.082-.457 1.857c-5.229 21.257 5.615 32.117 26.863 26.905l34.839-8.546c83.638-20.516 185.628-85.145 274.304-173.821l.064-.064c20.981-20.979 34.367-45.448 33.948-62.053z" fill="url(#SVGID_11_)"/></g></g></svg>